<svg xmlns="http://www.w3.org/2000/svg" viewBox="0 0 512 512" role="img" aria-labelledby="leader-icon-title leader-icon-desc">
  <title id="leader-icon-title">Leader Field Operations app icon</title>
  <desc id="leader-icon-desc">A checked site location pin above a scaffold frame.</desc>
  <defs>
    <linearGradient id="leader-icon-bg" x1="88" y1="32" x2="424" y2="480" gradientUnits="userSpaceOnUse">
      <stop offset="0" stop-color="#071425"/>
      <stop offset="1" stop-color="#03070d"/>
    </linearGradient>
    <linearGradient id="leader-icon-pin" x1="178" y1="72" x2="336" y2="360" gradientUnits="userSpaceOnUse">
      <stop offset="0" stop-color="#147cff"/>
      <stop offset="1" stop-color="#075dcc"/>
    </linearGradient>
  </defs>
  <rect width="512" height="512" rx="92" fill="url(#leader-icon-bg)"/>
  <path d="M256 60c-72 0-130 57-130 128 0 88 130 190 130 190s130-102 130-190C386 117 328 60 256 60Z" fill="#d9e9f8"/>
  <path d="M256 84c-59 0-106 46-106 104 0 72 106 159 106 159s106-87 106-159C362 130 315 84 256 84Z" fill="url(#leader-icon-pin)"/>
  <path d="m205 189 37 37 72-78" fill="none" stroke="#fff" stroke-width="31" stroke-linecap="round" stroke-linejoin="round"/>
  <g fill="none" stroke-linecap="round" stroke-linejoin="round">
    <path d="M126 385h260M126 432h260" stroke="#d9e9f8" stroke-width="16"/>
    <path d="M148 368v80M256 360v88M364 368v80" stroke="#7fb5ff" stroke-width="14"/>
    <path d="m148 432 108-47 108 47" stroke="#c8a96a" stroke-width="12"/>
  </g>
</svg>
